<svg version="1.1" xmlns="http://www.w3.org/2000/svg" viewBox="0 0 150.48477441445897 154.42794678595294" width="300.96954882891794" height="308.8558935719059">
  <!-- svg-source:excalidraw -->
  
  <defs>
    <style class="style-fonts">
      
    </style>
    
  </defs>
  <g stroke-linecap="round" transform="translate(13.10665855404983 10) rotate(0 63.53890030968495 67.21397339297647)"><path d="M31.77 0 C54.24 2.24, 79.13 -0.68, 95.31 0 C118.62 1.64, 128.05 14.18, 127.08 31.77 C128.99 46.78, 125.21 58.62, 127.08 102.66 C125.01 123.23, 119.21 135.49, 95.31 134.43 C76.43 132.8, 53.54 136.33, 31.77 134.43 C11.98 132.38, 1.79 122.88, 0 102.66 C-2.26 77.59, -2.84 49.68, 0 31.77 C-2.35 12.71, 9.59 2.28, 31.77 0" stroke="none" stroke-width="0" fill="#ffffff"></path><path d="M31.77 0 C52.46 -0.78, 77.36 0.6, 95.31 0 M31.77 0 C52.51 -0.29, 74.21 0.12, 95.31 0 M95.31 0 C115.74 0.25, 126.94 11.41, 127.08 31.77 M95.31 0 C115.77 1.71, 128.73 10.17, 127.08 31.77 M127.08 31.77 C128.08 49.54, 128.62 71.84, 127.08 102.66 M127.08 31.77 C127.31 51.18, 127.59 69.64, 127.08 102.66 M127.08 102.66 C127.69 125.11, 118.2 132.81, 95.31 134.43 M127.08 102.66 C127.21 124.28, 114.66 134.48, 95.31 134.43 M95.31 134.43 C81.32 134.81, 66.18 133.65, 31.77 134.43 M95.31 134.43 C74.66 134.86, 55.54 135.13, 31.77 134.43 M31.77 134.43 C10.58 132.61, 1 125.83, 0 102.66 M31.77 134.43 C9.46 134.73, 1.55 123.21, 0 102.66 M0 102.66 C0.15 82.12, 1.57 62.58, 0 31.77 M0 102.66 C0.72 82.04, -0.24 61.17, 0 31.77 M0 31.77 C0.29 8.7, 9.98 -0.64, 31.77 0 M0 31.77 C-0.25 8.53, 9.7 1.19, 31.77 0" stroke="#343a40" stroke-width="4" fill="none"></path></g><g stroke-linecap="round" transform="translate(27.54961535403106 51.47467597780155) rotate(0 12.782912847072112 9.362877658276034)"><path d="M4.68 0 C9.16 -0.22, 15.39 -2.13, 20.88 0 C23.55 -2.82, 22.6 -1.49, 25.57 4.68 C26.57 8.5, 24.15 10.44, 25.57 14.04 C26.04 15.15, 24.64 19.69, 20.88 18.73 C15.85 21.35, 8.38 17.63, 4.68 18.73 C-0.86 15.89, 0.24 17.41, 0 14.04 C-0.52 13, 0.69 8.47, 0 4.68 C1.7 0.27, 2.12 2.39, 4.68 0" stroke="none" stroke-width="0" fill="#69db7c"></path><path d="M4.68 0 C7.04 -1.43, 12.71 -1.06, 20.88 0 M4.68 0 C8.92 -0.66, 15.48 -0.13, 20.88 0 M20.88 0 C23.03 0.89, 26.54 1.3, 25.57 4.68 M20.88 0 C26.14 -1.97, 23.86 0.1, 25.57 4.68 M25.57 4.68 C26.15 7.72, 24.73 9.75, 25.57 14.04 M25.57 4.68 C25.6 6.39, 25.85 8.92, 25.57 14.04 M25.57 14.04 C27.2 18.55, 25.67 19.14, 20.88 18.73 M25.57 14.04 C25.07 16.84, 22.66 16.95, 20.88 18.73 M20.88 18.73 C15.74 18.24, 8.82 20.05, 4.68 18.73 M20.88 18.73 C15.4 18.64, 7.81 18.31, 4.68 18.73 M4.68 18.73 C1.07 17.45, -1.84 16.56, 0 14.04 M4.68 18.73 C-0.55 19, -0.08 16.18, 0 14.04 M0 14.04 C-0.83 11.42, 0.53 7.73, 0 4.68 M0 14.04 C-0.13 12.08, -0.52 9.4, 0 4.68 M0 4.68 C0.24 2.03, 1.45 1.04, 4.68 0 M0 4.68 C1.93 1.85, 2.92 0.51, 4.68 0" stroke="#343a40" stroke-width="1" fill="none"></path></g><g stroke-linecap="round" transform="translate(27.313634993878964 81.70308699705606) rotate(0 12.782912847072112 9.362877658276034)"><path d="M4.68 0 C12.27 0.41, 13.61 -1.58, 20.88 0 C20.75 0.69, 26.41 0.89, 25.57 4.68 C26.51 9.91, 25.7 11.12, 25.57 14.04 C23.62 15.11, 24.43 15.97, 20.88 18.73 C17.93 21.1, 12.15 20.41, 4.68 18.73 C-0.62 19.01, -2.74 19.85, 0 14.04 C-1.47 11.33, 0.04 10.44, 0 4.68 C2.25 1.94, -1.31 -2.93, 4.68 0" stroke="none" stroke-width="0" fill="#a5d8ff"></path><path d="M4.68 0 C10.52 -0.32, 15.99 -1.29, 20.88 0 M4.68 0 C8.47 -0.19, 13.19 -0.2, 20.88 0 M20.88 0 C25.45 -0.39, 24.02 -0.04, 25.57 4.68 M20.88 0 C24.81 0.84, 24.66 3.43, 25.57 4.68 M25.57 4.68 C25.82 7.88, 25.96 12.23, 25.57 14.04 M25.57 4.68 C25.86 7.35, 25.77 10.58, 25.57 14.04 M25.57 14.04 C27.05 18.39, 24.26 19.94, 20.88 18.73 M25.57 14.04 C27.03 17.48, 24.24 19.16, 20.88 18.73 M20.88 18.73 C14.85 18, 10.56 19.62, 4.68 18.73 M20.88 18.73 C16.36 19.04, 12.67 18.42, 4.68 18.73 M4.68 18.73 C2.33 17.32, -1.47 16.75, 0 14.04 M4.68 18.73 C-0.65 19.27, -2.29 17.11, 0 14.04 M0 14.04 C-0.47 11.94, 0.45 9.88, 0 4.68 M0 14.04 C0.16 10.11, 0.18 6.87, 0 4.68 M0 4.68 C0.45 0.3, -0.18 -0.71, 4.68 0 M0 4.68 C0.83 2.87, 1.08 1.67, 4.68 0" stroke="#343a40" stroke-width="1" fill="none"></path></g><g stroke-linecap="round" transform="translate(27.24078698065631 111.48575611061597) rotate(0 12.782912847072112 9.362877658276034)"><path d="M4.68 0 C6.42 1.41, 15.63 1.18, 20.88 0 C22.04 2.68, 28.48 -1.73, 25.57 4.68 C26.53 8.73, 24.43 9.62, 25.57 14.04 C28.97 18.74, 25.76 17.8, 20.88 18.73 C16 19.78, 6.31 18.17, 4.68 18.73 C-1.3 20.3, 3.35 13.81, 0 14.04 C-1.13 11.27, -0.01 8.91, 0 4.68 C1.91 -1.17, 3.99 -0.65, 4.68 0" stroke="none" stroke-width="0" fill="#69db7c"></path><path d="M4.68 0 C9.45 0.89, 13.64 -0.72, 20.88 0 M4.68 0 C10.99 -0.7, 15.56 0.01, 20.88 0 M20.88 0 C22.63 0.51, 25.8 2.01, 25.57 4.68 M20.88 0 C22.56 -2, 24.75 2.39, 25.57 4.68 M25.57 4.68 C25.47 7.55, 25.55 12.28, 25.57 14.04 M25.57 4.68 C25.13 7.71, 25.66 10.47, 25.57 14.04 M25.57 14.04 C27.22 15.53, 25.08 20.01, 20.88 18.73 M25.57 14.04 C27.82 17.54, 23.02 17.48, 20.88 18.73 M20.88 18.73 C16.5 17.16, 12.97 19.41, 4.68 18.73 M20.88 18.73 C14.21 18.88, 7.9 19.42, 4.68 18.73 M4.68 18.73 C-0.41 20.27, 1.73 15.57, 0 14.04 M4.68 18.73 C0.44 18.95, 0.23 18.6, 0 14.04 M0 14.04 C-0.28 10.27, -0.71 7.71, 0 4.68 M0 14.04 C-0.34 10.76, 0.29 6.88, 0 4.68 M0 4.68 C0 -0.01, 3.53 0.07, 4.68 0 M0 4.68 C0.55 0.09, 0.45 2.2, 4.68 0" stroke="#343a40" stroke-width="1" fill="none"></path></g><g stroke-linecap="round" transform="translate(63.128282091281164 111.32789546589481) rotate(0 12.782912847072112 9.362877658276034)"><path d="M4.68 0 C7.2 -2.3, 13.89 -1.86, 20.88 0 C20.43 3.42, 24.17 1.07, 25.57 4.68 C25.84 8.22, 24.38 12.61, 25.57 14.04 C23.44 18.81, 21.57 15.21, 20.88 18.73 C13.77 17.69, 6.78 20.4, 4.68 18.73 C4.07 21.16, -2 19.96, 0 14.04 C0.48 12.12, 0.26 10.33, 0 4.68 C-2.91 3.51, 2.28 -2.23, 4.68 0" stroke="none" stroke-width="0" fill="#69db7c"></path><path d="M4.68 0 C8.66 -1.04, 11.08 1.55, 20.88 0 M4.68 0 C8.11 0.41, 13.62 0.35, 20.88 0 M20.88 0 C22.91 1.49, 27.18 -0.27, 25.57 4.68 M20.88 0 C24.86 -2.01, 27.57 3.08, 25.57 4.68 M25.57 4.68 C26.4 8.39, 25.97 11.04, 25.57 14.04 M25.57 4.68 C25.83 8.44, 25.28 11.78, 25.57 14.04 M25.57 14.04 C23.98 18.04, 25.87 16.86, 20.88 18.73 M25.57 14.04 C25.04 15.44, 23.5 17.01, 20.88 18.73 M20.88 18.73 C17.06 17.5, 12.61 18.44, 4.68 18.73 M20.88 18.73 C15.17 19.19, 10.7 19.35, 4.68 18.73 M4.68 18.73 C2.13 20.12, 0.92 16.24, 0 14.04 M4.68 18.73 C3.7 17.45, 0.48 17.27, 0 14.04 M0 14.04 C-0.34 12.58, -0.59 11.1, 0 4.68 M0 14.04 C0.33 10.16, 0.24 7.06, 0 4.68 M0 4.68 C0.84 2.31, 1.66 -0.52, 4.68 0 M0 4.68 C-0.45 3.79, 1.06 -0.19, 4.68 0" stroke="#343a40" stroke-width="1" fill="none"></path></g><g stroke-linecap="round" transform="translate(98.63436917950753 110.63008972922398) rotate(0 12.782912847072112 9.362877658276034)"><path d="M4.68 0 C8.73 -0.25, 16.2 1.41, 20.88 0 C23.91 -2.94, 22.52 1.06, 25.57 4.68 C24.22 7.17, 24.46 10.64, 25.57 14.04 C26.41 17.89, 25.94 17.53, 20.88 18.73 C14.53 21.64, 12.06 17.53, 4.68 18.73 C1.86 15.32, -0.8 16.54, 0 14.04 C1.51 10.51, 0.38 9.02, 0 4.68 C2.14 2.97, 1.89 1.22, 4.68 0" stroke="none" stroke-width="0" fill="#69db7c"></path><path d="M4.68 0 C9.33 -1.29, 10.83 0.11, 20.88 0 M4.68 0 C9.58 -0.16, 13.98 -0.29, 20.88 0 M20.88 0 C25.64 1.01, 23.75 0.48, 25.57 4.68 M20.88 0 C22.03 0.96, 23.29 3.38, 25.57 4.68 M25.57 4.68 C24.62 8.35, 25.26 10.93, 25.57 14.04 M25.57 4.68 C25.17 7.29, 25.84 9.48, 25.57 14.04 M25.57 14.04 C25.42 16.85, 23.02 20.1, 20.88 18.73 M25.57 14.04 C26.26 17.16, 24.47 19.92, 20.88 18.73 M20.88 18.73 C17.44 17.28, 12.87 19.22, 4.68 18.73 M20.88 18.73 C14.91 18.96, 7.96 18.01, 4.68 18.73 M4.68 18.73 C2.99 16.93, 1.12 15.35, 0 14.04 M4.68 18.73 C1.18 19.41, -1.92 16.97, 0 14.04 M0 14.04 C0.58 11.45, -0.21 8.4, 0 4.68 M0 14.04 C-0.28 11.61, -0.29 8.33, 0 4.68 M0 4.68 C-1.56 -0.31, -0.36 0.8, 4.68 0 M0 4.68 C2.11 2.34, -0.54 -0.75, 4.68 0" stroke="#343a40" stroke-width="1" fill="none"></path></g><g stroke-linecap="round" transform="translate(62.43345041812967 80.66496237019237) rotate(0 12.782912847072112 9.362877658276034)"><path d="M4.68 0 C12.56 0.07, 15.18 0.95, 20.88 0 C22.17 -3.56, 22.7 3.38, 25.57 4.68 C26.44 6.7, 27.02 10.41, 25.57 14.04 C25.47 14.9, 24.01 19.2, 20.88 18.73 C17.92 17.91, 6.63 19.11, 4.68 18.73 C2.58 21.65, -1.47 20.27, 0 14.04 C0.13 11.24, 1.38 10.39, 0 4.68 C1.17 3.52, 2.06 -2.03, 4.68 0" stroke="none" stroke-width="0" fill="#69db7c"></path><path d="M4.68 0 C9.4 0.43, 14.44 0.95, 20.88 0 M20.88 0 C25.77 -0.59, 25.99 2.8, 25.57 4.68 M25.57 4.68 C25.92 8.01, 25.76 11.9, 25.57 14.04 M25.57 14.04 C25.67 15.25, 25.65 17.93, 20.88 18.73 M20.88 18.73 C16.76 19.49, 10.94 18.2, 4.68 18.73 M4.68 18.73 C0.31 17.73, -1.72 15.44, 0 14.04 M0 14.04 C0.13 11.08, -0.25 9.91, 0 4.68 M0 4.68 C-0.17 2.13, 3.03 1.79, 4.68 0" stroke="#1971c2" stroke-width="2.5" fill="none" stroke-dasharray="8 10"></path></g><g stroke-linecap="round" transform="translate(98.21525414905375 82.12004408525286) rotate(0 12.782912847072112 9.362877658276034)"><path d="M4.68 0 C13.13 0.97, 16.25 -1.18, 20.88 0 C23.67 3.31, 27.25 -1.68, 25.57 4.68 C24.26 7.22, 26.91 8.28, 25.57 14.04 C26.13 16.92, 21.85 16.72, 20.88 18.73 C20.5 19.11, 14.64 15.89, 4.68 18.73 C4.44 21.91, 2.52 16.52, 0 14.04 C-0.89 10.22, -0.27 9.01, 0 4.68 C1.43 2.4, 1.51 -1.24, 4.68 0" stroke="none" stroke-width="0" fill="#fa5252"></path><path d="M4.68 0 C8.27 1.07, 11.45 -1.47, 20.88 0 M4.68 0 C8.85 -0.15, 12.98 -0.38, 20.88 0 M20.88 0 C22.92 -1.49, 24.71 -0.11, 25.57 4.68 M20.88 0 C22.63 1.45, 24.26 3.28, 25.57 4.68 M25.57 4.68 C25.75 7.5, 26.42 10.37, 25.57 14.04 M25.57 4.68 C25.51 6.92, 25.4 8.97, 25.57 14.04 M25.57 14.04 C26.43 17.81, 24.86 20.48, 20.88 18.73 M25.57 14.04 C27.23 16.42, 26.09 18.51, 20.88 18.73 M20.88 18.73 C16.12 19.49, 15.13 17.18, 4.68 18.73 M20.88 18.73 C15.66 18.62, 9.41 17.86, 4.68 18.73 M4.68 18.73 C3.18 18.45, -1.96 17.29, 0 14.04 M4.68 18.73 C3.06 18.12, -1.68 15.47, 0 14.04 M0 14.04 C0.05 11.67, 0.96 9.04, 0 4.68 M0 14.04 C0.09 11.21, -0.25 9.13, 0 4.68 M0 4.68 C0.17 0.71, 3.28 0.23, 4.68 0 M0 4.68 C0.76 2.12, 3.69 1.56, 4.68 0" stroke="#343a40" stroke-width="1" fill="none"></path></g><g stroke-linecap="round" transform="translate(63.61349191532253 51.71606773659414) rotate(0 12.782912847072112 9.362877658276034)"><path d="M4.68 0 C11 -0.16, 12.66 -2.8, 20.88 0 C21.12 2.8, 23.44 -1.47, 25.57 4.68 C27.19 7.71, 24.4 11.51, 25.57 14.04 C27.27 15.05, 23.95 20.12, 20.88 18.73 C15.67 19.04, 14.4 21.46, 4.68 18.73 C3.37 18.48, 1.83 16.62, 0 14.04 C-1.46 11.71, -0.38 7.45, 0 4.68 C0.49 2.84, -1.35 1.21, 4.68 0" stroke="none" stroke-width="0" fill="#a5d8ff"></path><path d="M4.68 0 C9.39 0.37, 14.53 1.08, 20.88 0 M4.68 0 C11.42 0.31, 16.68 -0.29, 20.88 0 M20.88 0 C23.82 1.84, 26.5 -0.24, 25.57 4.68 M20.88 0 C22.38 -0.63, 27.45 -0.16, 25.57 4.68 M25.57 4.68 C25.79 7.64, 25.08 10.21, 25.57 14.04 M25.57 4.68 C25.99 6.66, 25.58 8.05, 25.57 14.04 M25.57 14.04 C27.17 18.94, 25.4 18.37, 20.88 18.73 M25.57 14.04 C24.04 16.26, 24.54 17.42, 20.88 18.73 M20.88 18.73 C18.24 19.04, 14.3 18.1, 4.68 18.73 M20.88 18.73 C14.89 18.43, 10.54 18.52, 4.68 18.73 M4.68 18.73 C3.11 19.35, -0.78 16.72, 0 14.04 M4.68 18.73 C-0.31 20.83, -1.77 18.34, 0 14.04 M0 14.04 C-0.09 10.92, 0.39 6.24, 0 4.68 M0 14.04 C0.06 11.06, -0.37 6.85, 0 4.68 M0 4.68 C-1.88 0.91, -0.21 0.17, 4.68 0 M0 4.68 C-0.44 -0.7, 2.04 -0.59, 4.68 0" stroke="#343a40" stroke-width="1" fill="none"></path></g><g stroke-linecap="round" transform="translate(100.2408266838529 51.838519011949074) rotate(0 12.782912847072112 9.362877658276034)"><path d="M4.68 0 C8.45 2.76, 12.11 0.66, 20.88 0 C26.81 -1.51, 28.58 0.24, 25.57 4.68 C27.23 8.15, 26.31 7.97, 25.57 14.04 C27.72 20.45, 25.87 15.27, 20.88 18.73 C13.9 19.22, 11.12 18.95, 4.68 18.73 C-0.91 20.05, -0.82 16.69, 0 14.04 C0.74 12.93, -0.87 8.68, 0 4.68 C-1.92 -0.66, 5.05 0.1, 4.68 0" stroke="none" stroke-width="0" fill="#69db7c"></path><path d="M4.68 0 C8.62 0.98, 14.86 -0.09, 20.88 0 M4.68 0 C9.31 -0.65, 14.97 -0.61, 20.88 0 M20.88 0 C24.17 -0.38, 23.6 1.98, 25.57 4.68 M20.88 0 C23.41 0.56, 25.79 3.47, 25.57 4.68 M25.57 4.68 C24.75 7.08, 26.3 10.43, 25.57 14.04 M25.57 4.68 C25.27 7.15, 25.53 8.4, 25.57 14.04 M25.57 14.04 C25.76 18.11, 22.83 18.7, 20.88 18.73 M25.57 14.04 C26.45 16.24, 25.94 17.46, 20.88 18.73 M20.88 18.73 C18.19 19.65, 12.16 19.66, 4.68 18.73 M20.88 18.73 C15.5 18.17, 12.14 18.69, 4.68 18.73 M4.68 18.73 C1.69 19, 0.71 15.55, 0 14.04 M4.68 18.73 C2.33 18.09, 1.56 17.61, 0 14.04 M0 14.04 C0.19 10.76, 0.58 8.64, 0 4.68 M0 14.04 C-0.34 10.08, -0.3 6.43, 0 4.68 M0 4.68 C-0.55 3.18, 0.51 -0.71, 4.68 0 M0 4.68 C1.68 2.95, 1.31 -0.9, 4.68 0" stroke="#343a40" stroke-width="1" fill="none"></path></g><g stroke-linecap="round"><g transform="translate(13.406859545558689 41.47216022506882) rotate(0 63.22731336385465 0)"><path d="M0.02 2.41 C21.11 1.97, 105.79 -1.48, 127.08 -2.06 M-3.41 1.24 C17.32 1.06, 103.5 0.42, 125.18 0.45" stroke="#343a40" stroke-width="4" fill="none"></path></g></g><mask></mask></svg>